USFL
nRows=163
nColumns=2
inDegrees=yes
endheader
time	soleus_r	
2.31235	 14.353911	
2.37485	 14.372628	
2.43734	 14.361619	
2.49984	 14.358799	
2.56234	 14.355346	
2.62483	 14.334872	
2.68733	 14.324674	
2.74982	 14.319182	
2.81232	 14.318159	
2.87482	 14.326797	
2.93731	 14.324217	
2.99981	 14.337356	
3.0623	 14.322941	
3.1248	 14.326410	
3.1873	 14.347810	
3.24979	 14.360455	
3.31229	 14.357402	
3.37478	 14.356647	
3.43728	 14.320483	
3.49978	 14.314848	
3.56227	 14.344457	
3.62477	 14.332236	
3.68726	 14.321235	
3.74976	 14.327828	
3.81226	 14.344464	
3.87475	 14.356338	
3.93725	 14.421379	
3.99974	 14.453125	
4.06224	 14.436772	
4.12474	 14.498417	
4.18723	 14.583838	
4.24973	 14.565466	
4.31222	 14.643816	
4.37472	 14.597968	
4.43722	 14.533364	
4.49971	 14.527326	
4.56221	 14.527286	
4.6247	 14.513262	
4.6872	 14.457744	
4.7497	 14.403965	
4.81219	 14.389193	
4.87469	 14.425077	
4.93718	 14.547680	
4.99968	 14.531093	
5.06218	 14.514962	
5.12467	 14.543635	
5.18717	 14.556015	
5.24966	 14.524583	
5.31216	 14.531558	
5.37466	 14.539862	
5.43715	 14.546948	
5.49965	 14.558173	
5.56214	 14.535558	
5.62464	 14.563735	
5.68714	 14.731986	
5.74963	 14.805152	
5.81213	 14.802247	
5.87462	 14.882024	
5.93712	 14.895936	
5.99962	 14.857137	
6.06211	 14.909080	
6.12461	 14.937683	
6.1871	 14.929728	
6.2496	 14.956317	
6.3121	 14.966270	
6.37459	 14.900220	
6.43709	 14.833342	
6.49958	 14.820780	
6.56208	 14.816423	
6.62458	 14.832176	
6.68707	 14.828429	
6.74957	 14.839954	
6.81206	 14.844568	
6.87456	 14.839588	
6.93706	 14.896345	
6.99955	 14.944241	
7.06205	 14.934470	
7.12454	 14.931400	
7.18704	 14.916627	
7.24954	 14.917476	
7.31203	 14.903180	
7.37453	 14.895974	
7.43702	 14.899090	
7.49952	 14.890320	
7.56202	 14.928374	
7.62451	 14.927068	
7.68701	 14.942863	
7.7495	 14.995003	
7.812	 14.979986	
7.8745	 14.932633	
7.93699	 14.896550	
7.99949	 14.907167	
8.06198	 14.966503	
8.12448	 15.063168	
8.18698	 15.063788	
8.24947	 15.123285	
8.31197	 15.111531	
8.37446	 15.097351	
8.43696	 15.140856	
8.49946	 15.076579	
8.56195	 15.080502	
8.62445	 15.089473	
8.68694	 15.099617	
8.74944	 15.162249	
8.81194	 15.150282	
8.87443	 15.208413	
8.93693	 15.207649	
8.99942	 15.212586	
9.06192	 15.165857	
9.12442	 15.142641	
9.18691	 15.166816	
9.24941	 15.182865	
9.3119	 15.169930	
9.3744	 15.183205	
9.4369	 15.161543	
9.49939	 15.135332	
9.56189	 15.122047	
9.62438	 15.093139	
9.68688	 15.056009	
9.74938	 15.088007	
9.81187	 15.115334	
9.87437	 15.110804	
9.93686	 15.140912	
9.99936	 15.245010	
10.0619	 15.346047	
10.1244	 15.382927	
10.1868	 15.360898	
10.2493	 15.400727	
10.3118	 15.272586	
10.3743	 15.257131	
10.4368	 15.224748	
10.4993	 15.179560	
10.5618	 15.095912	
10.6243	 15.074382	
10.6868	 14.915732	
10.7493	 14.811657	
10.8118	 14.811027	
10.8743	 14.759708	
10.9368	 14.722084	
10.9993	 14.715435	
11.0618	 14.714434	
11.1243	 14.805204	
11.1868	 14.779979	
11.2493	 14.751299	
11.3118	 14.726485	
11.3743	 14.726386	
11.4368	 14.727098	
11.4993	 14.765402	
11.5618	 14.723584	
11.6243	 14.739774	
11.6868	 14.778332	
11.7492	 14.814412	
11.8117	 14.803177	
11.8742	 14.865519	
11.9367	 14.854963	
11.9992	 14.878068	
12.0617	 14.854627	
12.1242	 14.833059	
12.1867	 14.858273	
12.2492	 14.956800	
12.3117	 14.961083	
12.3742	 14.915345	
12.4367	 14.869457	
